<svg width="38" height="38" viewBox="0 0 38 38" fill="none" xmlns="http://www.w3.org/2000/svg"><path d="M19 0C8.50659 0 0 8.50659 0 19C0 29.4934 8.50659 38 19 38C29.4934 38 38 29.4934 38 19C38 8.50659 29.4934 0 19 0ZM19 35.15C10.0776 35.15 2.85 27.9224 2.85 19C2.85 10.0776 10.0776 2.85 19 2.85C27.9224 2.85 35.15 10.0776 35.15 19C35.15 27.9224 27.9224 35.15 19 35.15Z" fill="#000000"/><path d="M11.4 19.95L14.25 17.1L11.4 14.25L12.825 12.825L15.675 15.675L18.525 12.825L19.95 14.25L17.1 17.1L19.95 19.95L18.525 21.375L15.675 18.525L12.825 21.375L11.4 19.95Z" fill="#000000"/><path d="M22.8 19.95L25.65 17.1L22.8 14.25L24.225 12.825L27.075 15.675L29.925 12.825L31.35 14.25L28.5 17.1L31.35 19.95L29.925 21.375L27.075 18.525L24.225 21.375L22.8 19.95Z" fill="#000000"/></svg>