<svg width="38" height="57" viewBox="0 0 38 57" fill="none" xmlns="http://www.w3.org/2000/svg"><path d="M19 28.5C19 24.0815 22.5815 20.5 27 20.5C31.4185 20.5 35 24.0815 35 28.5C35 32.9185 31.4185 36.5 27 36.5C22.5815 36.5 19 32.9185 19 28.5Z" fill="#1ABCFE"/><path d="M3 44.5C3 40.0815 6.58152 36.5 11 36.5H19V44.5C19 48.9185 15.4185 52.5 11 52.5C6.58152 52.5 3 48.9185 3 44.5Z" fill="#0ACF83"/><path d="M19 4.5V20.5H27C31.4185 20.5 35 16.9185 35 12.5C35 8.08152 31.4185 4.5 27 4.5H19Z" fill="#FF7262"/><path d="M3 12.5C3 16.9185 6.58152 20.5 11 20.5H19V4.5H11C6.58152 4.5 3 8.08152 3 12.5Z" fill="#F24E1E"/><path d="M3 28.5C3 32.9185 6.58152 36.5 11 36.5H19V20.5H11C6.58152 20.5 3 24.0815 3 28.5Z" fill="#A259FF"/></svg>