<svg width="38" height="38" viewBox="0 0 38 38" fill="none" xmlns="http://www.w3.org/2000/svg"><path fillRule="evenodd" clipRule="evenodd" d="M19 0C8.5 0 0 8.5 0 19C0 27.4 5.4 34.5 13 37C13.9 37.2 14.3 36.6 14.3 36.1C14.3 35.7 14.3 34.5 14.3 32.9C9 34 7.9 30.3 7.9 30.3C7 28.1 5.8 27.5 5.8 27.5C4.1 26.3 5.9 26.3 5.9 26.3C7.8 26.4 8.8 28.3 8.8 28.3C10.5 31.2 13.2 30.4 14.3 29.9C14.5 28.7 15 27.8 15.5 27.4C11.3 27 6.9 25.3 6.9 18C6.9 15.9 7.6 14.2 8.8 12.9C8.6 12.4 8 10.5 9 7.9C9 7.9 10.6 7.4 14.3 9.8C15.8 9.4 17.4 9.2 19 9.2C20.6 9.2 22.2 9.4 23.7 9.8C27.4 7.4 29 7.9 29 7.9C30 10.5 29.4 12.4 29.2 12.9C30.4 14.2 31.1 15.9 31.1 18C31.1 25.3 26.7 27 22.5 27.4C23.1 27.9 23.7 28.9 23.7 30.4C23.7 32.6 23.7 35.5 23.7 36.1C23.7 36.6 24.1 37.2 25 37C32.6 34.5 38 27.4 38 19C38 8.5 29.5 0 19 0Z" fill="#000000"/></svg>