<svg width="38" height="38" viewBox="0 0 38 38" fill="none" xmlns="http://www.w3.org/2000/svg"><path d="M19.9293 2.39392C19.7389 2.11669 19.3824 2 19 2C18.6176 2 18.2611 2.11669 18.0707 2.39392C16.7688 4.27221 11.1818 12.3068 11.1818 21.4545C11.1818 27.8977 14.6023 33.2727 19 33.2727C23.3977 33.2727 26.8182 27.8977 26.8182 21.4545C26.8182 12.3068 21.2312 4.27221 19.9293 2.39392Z" fill="#00ED64"/><path d="M19.9293 2.39392C19.7389 2.11669 19.3824 2 19 2V33.2727C23.3977 33.2727 26.8182 27.8977 26.8182 21.4545C26.8182 12.3068 21.2312 4.27221 19.9293 2.39392Z" fill="#00B84D"/></svg>