<svg width="38" height="38" viewBox="0 0 38 38" fill="none" xmlns="http://www.w3.org/2000/svg"><path d="M19 37.5C18.4533 37.5 17.9067 37.3533 17.4333 37.06L13.09 34.5133C12.37 34.1133 12.75 33.9667 12.97 33.9667C14.0067 33.6767 14.2267 33.6033 15.2633 33.0567L16.3733 32.4367C16.5933 32.29 16.8867 32.3633 17.0333 32.5833L20.11 34.44C20.33 34.5867 20.6233 34.5867 20.77 34.44L32.21 27.7933C32.43 27.6467 32.5767 27.4267 32.5767 27.1333V13.9133C32.5767 13.62 32.43 13.4 32.21 13.2533L20.77 6.60667C20.55 6.46 20.2567 6.46 20.11 6.60667L8.67 13.2533C8.45 13.4 8.30333 13.62 8.30333 13.9133V27.1333C8.30333 27.3533 8.45 27.5733 8.67 27.72L11.9967 29.6033C13.0333 30.1133 13.6533 29.5667 13.6533 29.02V14.8767C13.6533 14.6567 13.8733 14.4367 14.0933 14.4367H15.7167C15.9367 14.4367 16.1567 14.6567 16.1567 14.8767V29.02C16.1567 30.2567 15.4633 31.0233 14.2267 31.0233C13.7533 31.0233 13.3533 31.0233 12.4633 30.5867L9.28333 28.7767C8.30333 28.21 7.76 27.2467 7.76 26.21V14.8767C7.76 13.84 8.30333 12.8767 9.28333 12.31L20.77 5.66333C21.7133 5.12333 22.9867 5.12333 23.93 5.66333L35.37 12.31C36.35 12.8767 36.8933 13.84 36.8933 14.8767V26.21C36.8933 27.2467 36.35 28.21 35.37 28.7767L23.93 35.4233C23.4567 35.7167 22.91 35.8633 22.3633 35.8633L19 37.5ZM24.3667 26.2833C19.22 26.2833 18.21 23.9367 18.21 21.9567C18.21 21.7367 18.43 21.5167 18.65 21.5167H20.3467C20.5667 21.5167 20.7133 21.6633 20.7133 21.8833C20.9333 23.4333 21.5533 24.1267 24.44 24.1267C26.69 24.1267 27.6733 23.5767 27.6733 22.3967C27.6733 21.6633 27.38 21.1167 23.6367 20.6433C20.5667 20.2433 18.65 19.4033 18.65 16.9833C18.65 14.7333 20.5667 13.4 24.0733 13.4C27.9667 13.4 29.7367 14.6567 29.9567 17.3833C29.9567 17.4567 29.9567 17.6033 29.81 17.75C29.6633 17.8967 29.5167 17.9667 29.37 17.9667H27.6733C27.4533 17.9667 27.2333 17.8233 27.2333 17.6033C26.8333 16.1267 26.0667 15.5567 24.0733 15.5567C21.8233 15.5567 21.3733 16.4167 21.3733 17.1667C21.3733 18.0567 21.8967 18.3567 25.4033 18.9033C28.91 19.45 30.4 20.2433 30.4 22.6167C30.4 25.0833 28.3367 26.2833 24.3667 26.2833Z" fill="#539E43"/></svg>